<?xml version="1.0" standalone="no"?>
<!DOCTYPE svg PUBLIC "-//W3C//DTD SVG 20010904//EN"
 "http://www.w3.org/TR/2001/REC-SVG-20010904/DTD/svg10.dtd">
<svg version="1.0" xmlns="http://www.w3.org/2000/svg"
 width="260.000000pt" height="260.000000pt" viewBox="0 0 260.000000 260.000000"
 preserveAspectRatio="xMidYMid meet">
<metadata>
Created by potrace 1.11, written by Peter Selinger 2001-2013
</metadata>
<g transform="translate(0.000000,260.000000) scale(0.100000,-0.100000)"
fill="#000000" stroke="none">
<path d="M952 2579 c2 -14 15 -25 38 -33 20 -6 44 -25 57 -45 l23 -34 0 -498
0 -499 -150 0 -150 0 0 390 0 390 -170 0 -170 0 0 -950 0 -950 170 0 170 0 0
390 0 390 150 0 150 0 0 -499 0 -498 -23 -34 c-13 -20 -37 -39 -57 -45 -23 -8
-36 -19 -38 -33 l-3 -21 291 0 291 0 -3 22 c-2 15 -13 24 -35 30 -17 4 -43 22
-57 39 l-26 31 0 504 0 504 105 0 c119 0 155 -12 180 -60 12 -24 15 -78 15
-307 0 -269 1 -280 23 -323 16 -33 34 -51 67 -68 40 -20 58 -22 207 -22 l163
0 0 25 c0 16 -6 25 -15 25 -29 0 -74 30 -89 58 -11 22 -15 95 -18 337 -5 338
-9 363 -72 464 l-26 41 26 41 c63 101 67 126 72 464 3 242 7 315 18 337 15 28
60 58 89 58 9 0 15 9 15 25 l0 25 -163 0 c-149 0 -167 -2 -207 -22 -33 -17
-51 -35 -67 -68 -22 -43 -23 -54 -23 -323 0 -229 -3 -283 -15 -307 -25 -48
-61 -60 -180 -60 l-105 0 0 504 0 504 26 31 c14 17 40 35 57 39 22 6 33 15 35
30 l3 22 -291 0 -291 0 3 -21z"/>
</g>
</svg>
